<?xml version="1.0" encoding="utf-8"?>
<!-- Generator: Adobe Illustrator 16.0.0, SVG Export Plug-In . SVG Version: 6.00 Build 0)  -->
<!DOCTYPE svg PUBLIC "-//W3C//DTD SVG 1.1//EN" "http://www.w3.org/Graphics/SVG/1.1/DTD/svg11.dtd">
<svg version="1.1" id="Layer_1" xmlns="http://www.w3.org/2000/svg" xmlns:xlink="http://www.w3.org/1999/xlink" x="0px" y="0px"
	 width="1024px" height="1024px" viewBox="-496 -496 1024 1024" enable-background="new -496 -496 1024 1024" xml:space="preserve">
<g id="Layer_1_1_">
	<g id="fire_1_">
		<path fill="#333333" d="M207.878-208c-2,85.594-66.25,157.891-66.25,157.891C141.628-209.344,15.878-336,15.878-336
			s-1.703,94.781-65.375,190.344C-113.185-368.609-304.278-496-304.278-496c95.547,350.344-31.844,477.766-31.844,732.563
			C-336.122,386-209.591,528-16.122,528c286.625,0,342.063-105.219,371.688-223.781C396.378,141,335.253-48.766,207.878-208z
			 M293.503,288.688C272.94,370.875,249.69,464-16.122,464c-160.25,0-256-115.656-256-227.438
			c0-85.656,15.609-155.938,32.125-230.391c21-94.359,42.5-190.969,33.188-318.75C-108.122-175.969-72.981,5.031-72.981,5.031
			s91.859-129,116.578-188.906C62.503-145.375,79.878-16,79.878,112c0,0,85-70,148.75-175.297
			C295.753,57.094,319.94,182.938,293.503,288.688z"/>
		<path fill="#333333" d="M221.69,41.438l-27.188,31.531C160.815,112.25,128.94,149.5,43.847,192.313
			C31.659,155.781,20.581,115.563,20.581,54V-0.703l-48.578,76.078c-16.375,25.969-29.953,47.469-50.172,76.063
			C-108.856,82.25-130.56,31.078-147.028-15.359l-15.328-43.203l-16.641,48.328c-21.125,61.484-41.125,119.516-41.125,270.203
			c0,8.844,7.141,16,16,16c8.797,0,16-7.156,16-16c0-115.469,11.484-172.656,26.875-222.094c16.641,42.281,37.641,90.375,65.188,152
			l11.266,25.063l16.25-22.125c26.563-36.188,42.375-60.5,59.688-87.781c5.047,47.313,16.734,81.281,28.313,114.875l5.828,16.906
			l16.188-7.656c86.5-41.094,126.969-78.5,159.094-114.406c5,59.656-2.875,124.938-21.563,171.313
			c-3.313,8.188,0.688,17.5,8.875,20.781c1.938,0.781,4,1.156,6,1.156c6.313,0,12.344-3.781,14.813-10
			c24.813-61.563,32.281-149.25,18.969-223.438L221.69,41.438z"/>
	</g>
</g>
<g id="Layer_2">
</g>
</svg>
